<svg width="23" height="26" viewBox="0 0 23 26" fill="none" xmlns="http://www.w3.org/2000/svg">
<path d="M20.2179 15.9878L22.7395 15.9878L22.7395 13.8941L15.4506 13.8941C15.318 16.0665 13.4938 17.7902 11.2639 17.7902C9.03397 17.7902 7.20975 16.0665 7.07717 13.8941L0.260203 13.8941L0.260203 15.9878L2.34162 15.9878C2.45298 16.4181 2.59881 16.8405 2.77381 17.255C2.97267 17.722 3.20866 18.168 3.48176 18.5904L1.66019 20.3929L4.52909 23.2316L6.35332 21.4266C6.7749 21.6916 7.22035 21.9224 7.68436 22.1166C8.20671 22.3344 8.74496 22.5049 9.29382 22.623L9.29382 25.1338L13.3559 25.1338L13.3559 22.602C13.8729 22.4839 14.3794 22.3212 14.8725 22.1166C15.371 21.9093 15.8456 21.6601 16.2937 21.3715L18.0861 23.1451L20.9577 20.3037L19.1361 18.5012C19.3854 18.1051 19.6001 17.6879 19.7857 17.255C19.9607 16.8405 20.1066 16.4181 20.2179 15.9878Z" fill="black"/>
<path d="M19.1345 4.78504V9.01266C19.1345 9.29956 18.8974 9.53232 18.6053 9.53232H18.2304C17.9383 9.53232 17.7013 9.29956 17.7013 9.01266V3.68618C16.6153 2.97706 15.3971 2.44658 14.0907 2.14345V9.47819C14.0907 9.76508 13.8537 9.99785 13.5615 9.99785H9.42725C9.1351 9.99785 8.89807 9.76508 8.89807 9.47819V2.14345C7.60819 2.44658 6.38996 2.98248 5.30403 3.68618V9.01266C5.30403 9.29956 5.067 9.53232 4.77485 9.53232H4.40001C4.10786 9.53232 3.87083 9.29956 3.87083 9.01266V4.78504C1.65487 6.79871 0.260254 9.67306 0.260254 12.8722H22.7395C22.745 9.67306 21.3559 6.79871 19.1345 4.78504Z" fill="black"/>
<path d="M13.0326 8.60297C13.0326 8.84491 12.8554 9.04051 12.6323 9.04051H10.3676C10.1503 9.04051 9.96729 8.84491 9.96729 8.60297V1.30377C9.96729 1.06183 10.1446 0.866226 10.3676 0.866226H12.6323C12.8496 0.866226 13.0326 1.06183 13.0326 1.30377V8.60297Z" fill="black"/>
</svg>
