<svg width="23" height="26" viewBox="0 0 23 26" fill="none" xmlns="http://www.w3.org/2000/svg">
<path d="M20.2181 15.9878L22.7397 15.9878L22.7397 13.8941L15.4508 13.8941C15.3182 16.0665 13.494 17.7902 11.2641 17.7902C9.03415 17.7902 7.20993 16.0665 7.07736 13.8941L0.260386 13.8941L0.260386 15.9878L2.3418 15.9878C2.45317 16.4181 2.599 16.8405 2.774 17.255C2.97286 17.722 3.20884 18.168 3.48194 18.5904L1.66037 20.3929L4.52928 23.2317L6.3535 21.4266C6.77509 21.6916 7.22054 21.9225 7.68455 22.1166C8.20689 22.3344 8.74514 22.5049 9.294 22.623L9.294 25.1338L13.3561 25.1338L13.3561 22.602C13.8731 22.4839 14.3795 22.3213 14.8727 22.1166C15.3712 21.9093 15.8458 21.6601 16.2939 21.3715L18.0863 23.1451L20.9579 20.3037L19.1363 18.5012C19.3856 18.1051 19.6003 17.6879 19.7859 17.255C19.9609 16.8405 20.1068 16.4181 20.2181 15.9878Z" fill="white"/>
<path d="M19.1346 4.78514V9.01277C19.1346 9.29966 18.8976 9.53243 18.6054 9.53243H18.2306C17.9384 9.53243 17.7014 9.29966 17.7014 9.01277V3.68629C16.6154 2.97717 15.3972 2.44669 14.0908 2.14355V9.4783C14.0908 9.76519 13.8538 9.99795 13.5616 9.99795H9.42737C9.13522 9.99795 8.89819 9.76519 8.89819 9.4783V2.14355C7.60831 2.44669 6.39008 2.98258 5.30415 3.68629V9.01277C5.30415 9.29966 5.06713 9.53243 4.77497 9.53243H4.40013C4.10798 9.53243 3.87095 9.29966 3.87095 9.01277V4.78514C1.65499 6.79881 0.260376 9.67317 0.260376 12.8723H22.7396C22.7452 9.67317 21.3561 6.79881 19.1346 4.78514Z" fill="white"/>
<path d="M13.0327 8.60296C13.0327 8.84489 12.8554 9.0405 12.6324 9.0405H10.3677C10.1504 9.0405 9.96735 8.84489 9.96735 8.60296V1.30375C9.96735 1.06182 10.1446 0.866211 10.3677 0.866211H12.6324C12.8497 0.866211 13.0327 1.06182 13.0327 1.30375V8.60296Z" fill="white"/>
</svg>
