<svg width="23" height="26" viewBox="0 0 23 26" fill="none" xmlns="http://www.w3.org/2000/svg">
<path d="M19.9577 15.9878L22.4793 15.9878L22.4793 13.8941L15.1904 13.8941C15.0578 16.0665 13.2336 17.7902 11.0037 17.7902C8.77378 17.7902 6.94956 16.0665 6.81698 13.8941L1.05193e-05 13.8941L1.03363e-05 15.9878L2.08143 15.9878C2.19279 16.4181 2.33862 16.8405 2.51362 17.255C2.71248 17.722 2.94846 18.168 3.22157 18.5904L1.39999 20.3929L4.2689 23.2317L6.09312 21.4266C6.51471 21.6916 6.96016 21.9225 7.42417 22.1166C7.94651 22.3344 8.48477 22.5049 9.03362 22.623L9.03362 25.1338L13.0957 25.1338L13.0957 22.602C13.6127 22.4839 14.1192 22.3213 14.6124 22.1166C15.1108 21.9093 15.5854 21.6601 16.0335 21.3715L17.826 23.1451L20.6975 20.3037L18.8759 18.5012C19.1252 18.1051 19.34 17.6879 19.5256 17.255C19.7006 16.8405 19.8464 16.4181 19.9577 15.9878Z" fill="#ED9B05"/>
<path d="M18.8742 4.78514V9.01277C18.8742 9.29966 18.6372 9.53243 18.345 9.53243H17.9702C17.678 9.53243 17.441 9.29966 17.441 9.01277V3.68629C16.3551 2.97717 15.1368 2.44669 13.8304 2.14355V9.4783C13.8304 9.76519 13.5934 9.99795 13.3012 9.99795H9.167C8.87485 9.99795 8.63782 9.76519 8.63782 9.4783V2.14355C7.34793 2.44669 6.12971 2.98258 5.04378 3.68629V9.01277C5.04378 9.29966 4.80675 9.53243 4.5146 9.53243H4.13976C3.8476 9.53243 3.61057 9.29966 3.61057 9.01277V4.78514C1.39462 6.79881 0 9.67317 0 12.8723H22.4793C22.4848 9.67317 21.0957 6.79881 18.8742 4.78514Z" fill="#ED9B05"/>
<path d="M12.7723 8.60296C12.7723 8.84489 12.595 9.0405 12.372 9.0405H10.1073C9.88998 9.0405 9.70697 8.84489 9.70697 8.60296V1.30375C9.70697 1.06182 9.88426 0.866211 10.1073 0.866211H12.372C12.5893 0.866211 12.7723 1.06182 12.7723 1.30375V8.60296Z" fill="#ED9B05"/>
</svg>
